<?xml version="1.0" encoding="iso-8859-1"?>
<svg version="1.1" id="Capa_1" xmlns="http://www.w3.org/2000/svg" xmlns:xlink="http://www.w3.org/1999/xlink" x="0px" y="0px"
	 viewBox="0 0 512 512" style="enable-background:new 0 0 512 512;" xml:space="preserve">
<path style="fill:#303C42;" d="M467.093,44.631c-31.648-31.684-73.936-46.673-115.46-44.408
	c-35.997,1.964-71.419,16.97-98.836,44.408c-49.073,49.094-121.505,189.883-99.281,266.696L59.521,405.38H37.294
	C16.732,405.38,0,422.123,0,442.697c0,18.877,14.089,34.537,32.299,36.984C34.755,497.902,50.385,512,69.261,512
	c20.562,0,37.294-16.743,37.294-37.317v-22.24l94.138-94.196c9.559,2.763,20.147,4.381,32.063,4.381
	c25.224,0,55.504-6.206,89.656-18.627c55.275-20.106,114.775-55.038,144.681-84.963c32.845-32.86,48.043-77.177,44.37-120.214
	C508.529,104.444,493.331,70.881,467.093,44.631z"/>
<path style="fill:#FAFAFA;" d="M88.458,440.682c-2,2-3.125,4.708-3.125,7.542v26.667c0,8.823-7.188,16-16,16s-16-7.177-16-16
	c0-0.417,0.333-1.563,1-3.938c0.979-3.708-0.729-7.49-3.479-10.177c-2.708-2.677-7.292-3.542-11.042-2.469
	c-0.917,0.26-2.063,0.583-2.479,0.583c-8.813,0-16-7.177-16-16c0-8.823,7.188-16,16-16H64c2.833,0,5.542-1.125,7.542-3.125
	l91.763-91.763c2.245,3.345,4.471,6.706,7.341,9.576c2.82,2.822,6.133,5.148,9.509,7.408L88.458,440.682z"/>
<path style="fill:#F9A825;" d="M452.025,243.961c-27.95,27.946-84.224,60.848-136.898,79.996
	c-61.519,22.365-108.74,23.261-129.593,2.395c-47.554-47.594,27.846-212.126,82.33-266.644c25.39-25.395,58.73-38.098,92.091-38.098
	c33.34,0,66.68,12.703,92.07,38.098C502.784,110.509,502.784,193.16,452.025,243.961z"/>
<path style="opacity:0.1;enable-background:new    ;" d="M458.789,68.001c-1.896-1.605-4.021-2.754-5.98-4.24
	c38.686,50.996,35.724,123.71-10.755,170.228c-27.949,27.947-84.224,60.849-136.897,79.996
	c-49.234,17.9-89.085,21.852-113.763,12.055c0.991,2.414,1.85,4.945,3.141,7.091c-3.392-1.924-6.402-4.181-9-6.78
	c20.854,20.866,68.074,19.971,129.594-2.395c52.673-19.147,108.948-52.049,136.897-79.996
	C500.207,195.739,502.079,119.136,458.789,68.001z"/>
<path style="opacity:0.2;fill:#FFFFFF;enable-background:new    ;" d="M282.975,74.818c25.391-25.395,58.73-38.098,92.091-38.098
	c29.931,0,59.546,10.813,83.724,31.281c-2.315-2.736-4.189-5.715-6.766-8.294c-25.389-25.396-58.729-38.098-92.069-38.098
	c-33.361,0-66.702,12.702-92.091,38.098c-54.484,54.517-129.884,219.049-82.331,266.643c2.598,2.599,5.608,4.855,9,6.78
	C160.917,277.225,231.262,126.563,282.975,74.818z"/>
<linearGradient id="SVGID_1_" gradientUnits="userSpaceOnUse" x1="-41.5977" y1="637.069" x2="-26.3662" y2="629.9662" gradientTransform="matrix(21.3333 0 0 -21.3333 996.3333 13791.667)">
	<stop  offset="0" style="stop-color:#FFFFFF;stop-opacity:0.2"/>
	<stop  offset="1" style="stop-color:#FFFFFF;stop-opacity:0"/>
</linearGradient>
<path style="fill:url(#SVGID_1_);" d="M467.093,44.631c-31.648-31.684-73.936-46.673-115.46-44.408
	c-35.997,1.964-71.419,16.97-98.836,44.408c-49.073,49.094-121.505,189.883-99.281,266.696L59.521,405.38H37.294
	C16.732,405.38,0,422.123,0,442.697c0,18.877,14.089,34.537,32.299,36.984C34.755,497.902,50.385,512,69.261,512
	c20.562,0,37.294-16.743,37.294-37.317v-22.24l94.138-94.196c9.559,2.763,20.147,4.381,32.063,4.381
	c25.224,0,55.504-6.206,89.656-18.627c55.275-20.106,114.775-55.038,144.681-84.963c32.845-32.86,48.043-77.177,44.37-120.214
	C508.529,104.444,493.331,70.881,467.093,44.631z"/>
</svg>
